<?xml version="1.0" encoding="UTF-8"?>
<!DOCTYPE svg PUBLIC "-//W3C//DTD SVG 1.1//EN" "http://www.w3.org/Graphics/SVG/1.1/DTD/svg11.dtd">
<!-- Creator: CorelDRAW -->
<svg xmlns="http://www.w3.org/2000/svg" xml:space="preserve" width="200px" height="50px" style="shape-rendering:geometricPrecision; text-rendering:geometricPrecision; image-rendering:optimizeQuality; fill-rule:evenodd; clip-rule:evenodd"
viewBox="0 0 186.518 29.541"
 xmlns:xlink="http://www.w3.org/1999/xlink">
 <defs>
  <style type="text/css">
   <![CDATA[
    .fil0 {fill:white;fill-rule:nonzero}
    .fil4 {fill:url(#id0)}
    .fil3 {fill:url(#id1);fill-rule:nonzero}
    .fil2 {fill:url(#id2);fill-rule:nonzero}
    .fil1 {fill:url(#id3);fill-rule:nonzero}
   ]]>
  </style>
  <linearGradient id="id0" gradientUnits="userSpaceOnUse" x1="155.982" y1="13.8004" x2="166.004" y2="13.8004">
   <stop offset="0" style="stop-color:#CC33FF"/>
   <stop offset="0.729412" style="stop-color:#B31AE6"/>
   <stop offset="1" style="stop-color:#9900CC"/>
  </linearGradient>
  <linearGradient id="id1" gradientUnits="userSpaceOnUse" xlink:href="#id0" x1="138.665" y1="20.74" x2="152.142" y2="20.74">
  </linearGradient>
  <linearGradient id="id2" gradientUnits="userSpaceOnUse" xlink:href="#id0" x1="142.534" y1="20.74" x2="147.966" y2="20.74">
  </linearGradient>
  <linearGradient id="id3" gradientUnits="userSpaceOnUse" xlink:href="#id0" x1="169.235" y1="20.74" x2="186.518" y2="20.74">
  </linearGradient>
 </defs>
 <g id="Layer_x0020_1">
  <metadata id="CorelCorpID_0Corel-Layer"/>
  <path class="fil0" d="M-0.000207132 1.16471l18.2451 0 0 3.61011 -14.4794 0 0 8.53986 12.9265 0 0 3.61032 -12.9265 0 0 8.69542 15.0227 0 0 3.61011 -18.7884 0 0 -28.0658zm43.7876 24.417l9.62731 0 0 3.64884 -14.6347 0 5.00743 -3.64884zm-20.2244 -10.3647c0,-1.94083 0.368696,-3.77188 1.10629,-5.49294 0.737598,-1.72086 1.76622,-3.24784 3.08607,-4.58053 1.31985,-1.3329 2.8402,-2.38078 4.56126,-3.14427 1.72086,-0.763283 3.57759,-1.14524 5.57041,-1.14524 1.96672,0 3.81061,0.381952 5.53168,1.14524 1.72106,0.76349 3.24784,1.81137 4.58073,3.14427 1.33269,1.33269 2.37436,2.85967 3.1248,4.58053 0.750441,1.72106 1.12576,3.55211 1.12576,5.49294 0,1.99282 -0.375324,3.85598 -1.12576,5.58988 -0.750441,1.73391 -1.79211,3.25446 -3.1248,4.56126 -1.3329,1.3068 -2.85967,2.329 -4.58073,3.0666 -1.72106,0.737598 -3.56496,1.10629 -5.53168,1.10629 -1.99282,0 -3.84956,-0.362275 -5.57041,-1.08682 -1.72106,-0.724549 -3.24141,-1.73391 -4.56126,-3.02786 -1.31985,-1.29416 -2.34847,-2.80789 -3.08607,-4.54179 -0.737598,-1.73411 -1.10629,-3.62316 -1.10629,-5.66756zm3.88187 0.0387338c0,1.4752 0.271758,2.85325 0.815273,4.13436 0.543308,1.28091 1.29396,2.41309 2.25132,3.39635 0.957573,0.983672 2.07029,1.74716 3.33856,2.29047 1.26786,0.543515 2.6397,0.815066 4.11469,0.815066 1.44931,0 2.80789,-0.271551 4.07595,-0.815066 1.26806,-0.543308 2.36794,-1.3068 3.29962,-2.29047 0.931474,-0.983257 1.66928,-2.11544 2.21259,-3.39635 0.543515,-1.28111 0.815273,-2.67201 0.815273,-4.1731 0,-1.44931 -0.271758,-2.82094 -0.815273,-4.11489 -0.543308,-1.29396 -1.29396,-2.42614 -2.25132,-3.39656 -0.957573,-0.970415 -2.07029,-1.7337 -3.33856,-2.29026 -1.26786,-0.556565 -2.62685,-0.834536 -4.07595,-0.834536 -1.4752,0 -2.84662,0.277972 -4.11469,0.834536 -1.26806,0.556565 -2.38099,1.32627 -3.33856,2.30973 -0.957573,0.983257 -1.69496,2.12207 -2.21259,3.41603 -0.517624,1.29396 -0.776332,2.66559 -0.776332,4.11469zm35.6742 4.03722c0,1.26806 0.304277,2.40025 0.912211,3.39676 0.608141,0.996307 1.41699,1.77927 2.42635,2.34826 1.00936,0.569407 2.14796,0.854007 3.41603,0.854007 1.31985,0 2.49719,-0.2846 3.53244,-0.854007 1.03504,-0.568993 1.85031,-1.35195 2.44561,-2.34826 0.595091,-0.996514 0.892948,-2.1287 0.892948,-3.39676l0 -18.1282 3.68779 0 0 18.2446c0,2.0446 -0.472469,3.83029 -1.41699,5.35707 -0.944524,1.52698 -2.2128,2.70432 -3.80419,3.53264 -1.59161,0.827908 -3.37087,1.24197 -5.33759,1.24197l0 0c-1.96693,0 -3.73957,-0.414058 -5.31812,-1.24197 -1.57876,-0.828322 -2.83378,-2.00566 -3.76567,-3.53264 -0.931474,-1.52677 -1.39732,-3.31246 -1.39732,-5.35707l0 -18.2446 3.72652 0 0 18.1282zm22.2044 9.93759l12.2666 -29.2305 0.233024 0 12.2281 29.2305 -4.30898 0 -9.16126 -23.3299 2.67843 -1.74695 -10.2481 25.0769 -3.68779 0zm7.18149 -10.6362l10.4422 0 1.24217 3.26068 -12.7714 0 1.08703 -3.26068zm22.8254 -17.4296l3.76546 0 0 24.4557 14.2466 0 0 3.61011 -18.012 0 0 -28.0658z"/>
  <polygon class="fil1" points="176.354,29.2274 179.399,29.2274 186.518,12.2523 182.156,12.2523 177.876,23.4045 173.597,12.2523 169.235,12.2523 "/>
  <path class="fil2" d="M142.534 25.7708l0 -10.0615 0.596541 0c0.723513,0.00310699 1.37867,0.133393 1.9719,0.387338 0.589913,0.253737 1.1007,0.610419 1.52615,1.06632 0.428557,0.459627 0.75769,0.991336 0.987607,1.60155 0.22971,0.610626 0.346325,1.27241 0.349639,1.98578 -0.00683537,0.713157 -0.126765,1.37515 -0.359996,1.98205 -0.236752,0.606898 -0.566093,1.13861 -0.991336,1.59119 -0.428557,0.456106 -0.936031,0.809266 -1.52594,1.063 -0.586392,0.250423 -1.24134,0.380709 -1.95802,0.384231l-0.596541 0z"/>
  <path class="fil3" d="M138.665 12.2523l0 16.9751 4.91753 0c0.93976,-0.00331412 1.83478,-0.140436 2.68526,-0.408051 0.850278,-0.267615 1.6322,-0.65516 2.34557,-1.1558 0.713364,-0.500639 1.33393,-1.1007 1.86212,-1.80019 0.524873,-0.6999 0.936031,-1.48162 1.22415,-2.34577 0.291435,-0.864363 0.438914,-1.79356 0.442435,-2.78779 -0.00352125,-0.991336 -0.151,-1.91722 -0.442435,-2.77806 -0.565886,-1.67156 -1.64857,-3.1277 -3.09663,-4.13892 -0.713157,-0.500846 -1.49508,-0.88487 -2.34536,-1.15228 -0.847172,-0.270929 -1.74219,-0.404737 -2.67511,-0.408258l-4.91753 0z"/>
  <polygon class="fil4" points="155.982,12.2453 166.004,12.2453 166.004,15.3556 155.982,15.3556 "/>
  <polygon class="fil4" points="155.982,18.8749 166.004,18.8749 166.004,21.9852 155.982,21.9852 "/>
  <polygon class="fil4" points="155.982,25.5046 166.004,25.5046 166.004,28.6149 155.982,28.6149 "/>
 </g>
</svg>
